<svg xmlns="http://www.w3.org/2000/svg" xmlns:xlink="http://www.w3.org/1999/xlink" width="620" height="620" viewBox="0 0 620 620">
  <defs>
    <linearGradient id="linear-gradient" x1="0.5" x2="0.5" y2="0.649" gradientUnits="objectBoundingBox">
      <stop offset="0" stop-color="#f87a26"/>
      <stop offset="1" stop-color="#fedc2c"/>
    </linearGradient>
    <filter id="Ellipse_37" x="1" y="4" width="618" height="618" filterUnits="userSpaceOnUse">
      <feOffset dy="3" input="SourceAlpha"/>
      <feGaussianBlur stdDeviation="3" result="blur"/>
      <feFlood flood-opacity="0.161"/>
      <feComposite operator="in" in2="blur"/>
      <feComposite in="SourceGraphic"/>
    </filter>
    <filter id="Ellipse_38" x="1" y="4" width="618" height="618" filterUnits="userSpaceOnUse">
      <feOffset dy="3" input="SourceAlpha"/>
      <feGaussianBlur stdDeviation="3" result="blur-2"/>
      <feFlood flood-opacity="0.161"/>
      <feComposite operator="in" in2="blur-2"/>
      <feComposite in="SourceGraphic"/>
    </filter>
    <clipPath id="clip-Artboard_2">
      <rect width="620" height="620"/>
    </clipPath>
  </defs>
  <g id="Artboard_2" data-name="Artboard – 2" clip-path="url(#clip-Artboard_2)">
    <rect width="620" height="620" fill="#fff"/>
    <g id="Group_59" data-name="Group 59" transform="translate(-210.339 -575)">
      <g id="Group_33" data-name="Group 33" transform="translate(220.339 585)">
        <g transform="matrix(1, 0, 0, 1, -10, -10)" filter="url(#Ellipse_37)">
          <circle id="Ellipse_37-2" data-name="Ellipse 37" cx="300" cy="300" r="300" transform="translate(10 10)" fill="url(#linear-gradient)"/>
        </g>
        <g transform="matrix(1, 0, 0, 1, -10, -10)" filter="url(#Ellipse_38)">
          <circle id="Ellipse_38-2" data-name="Ellipse 38" cx="300" cy="300" r="300" transform="translate(10 10)" fill="#fff" opacity="0.18"/>
        </g>
      </g>
      <ellipse id="Ellipse_53" data-name="Ellipse 53" cx="50" cy="51.5" rx="50" ry="51.5" transform="translate(360.339 755)" fill="#935e10"/>
      <ellipse id="Ellipse_54" data-name="Ellipse 54" cx="48" cy="51.5" rx="48" ry="51.5" transform="translate(577.339 755)" fill="#935e10"/>
      <rect id="Rectangle_21" data-name="Rectangle 21" width="353" height="46" rx="23" transform="translate(347.339 992)" fill="#8c580d"/>
    </g>
  </g>
</svg>
