<svg xmlns="http://www.w3.org/2000/svg" xmlns:xlink="http://www.w3.org/1999/xlink" width="620" height="620" viewBox="0 0 620 620">
  <defs>
    <linearGradient id="linear-gradient" x1="0.5" x2="0.5" y2="0.649" gradientUnits="objectBoundingBox">
      <stop offset="0" stop-color="#f87a26"/>
      <stop offset="1" stop-color="#fedc2c"/>
    </linearGradient>
    <filter id="Ellipse_37" x="1" y="4" width="618" height="618" filterUnits="userSpaceOnUse">
      <feOffset dy="3" input="SourceAlpha"/>
      <feGaussianBlur stdDeviation="3" result="blur"/>
      <feFlood flood-opacity="0.161"/>
      <feComposite operator="in" in2="blur"/>
      <feComposite in="SourceGraphic"/>
    </filter>
    <filter id="Ellipse_38" x="1" y="4" width="618" height="618" filterUnits="userSpaceOnUse">
      <feOffset dy="3" input="SourceAlpha"/>
      <feGaussianBlur stdDeviation="3" result="blur-2"/>
      <feFlood flood-opacity="0.161"/>
      <feComposite operator="in" in2="blur-2"/>
      <feComposite in="SourceGraphic"/>
    </filter>
    <clipPath id="clip-Artboard_3">
      <rect width="620" height="620"/>
    </clipPath>
  </defs>
  <g id="Artboard_3" data-name="Artboard – 3" clip-path="url(#clip-Artboard_3)">
    <rect width="620" height="620" fill="#fff"/>
    <g id="Group_60" data-name="Group 60" transform="translate(-47.126 -575)">
      <g id="Group_39" data-name="Group 39" transform="translate(57.126 585)">
        <g transform="matrix(1, 0, 0, 1, -10, -10)" filter="url(#Ellipse_37)">
          <circle id="Ellipse_37-2" data-name="Ellipse 37" cx="300" cy="300" r="300" transform="translate(10 10)" fill="url(#linear-gradient)"/>
        </g>
        <g transform="matrix(1, 0, 0, 1, -10, -10)" filter="url(#Ellipse_38)">
          <circle id="Ellipse_38-2" data-name="Ellipse 38" cx="300" cy="300" r="300" transform="translate(10 10)" fill="#fff" opacity="0.18"/>
        </g>
      </g>
      <ellipse id="Ellipse_51" data-name="Ellipse 51" cx="48" cy="51.5" rx="48" ry="51.5" transform="translate(204.126 849)" fill="#935e10"/>
      <path id="Path_105" data-name="Path 105" d="M2.525,47.833c15.916,19.1,50.535-17.239,84.347-17.239s51.193,18.176,54.924,0S104.389,0,77.236,0-13.392,28.729,2.525,47.833Z" transform="translate(147.725 800.069) rotate(17)" fill="#9a5f0f"/>
      <path id="Path_106" data-name="Path 106" d="M1068.76,249.614c0,18.2-57.958-16.517-117.265-16.517s-99.743,34.713-99.743,16.517,40.436-72.786,99.743-72.786S1068.76,231.417,1068.76,249.614Z" transform="translate(-594.813 812.513)" fill="#935e10"/>
      <ellipse id="Ellipse_52" data-name="Ellipse 52" cx="50.055" cy="50.056" rx="50.055" ry="50.056" transform="translate(412.428 851.963)" fill="#935e10"/>
      <path id="Path_107" data-name="Path 107" d="M2.525,5.55C18.441-13.554,53.06,22.79,86.872,22.79s51.193-18.176,54.923,0S104.388,53.384,77.236,53.384-13.392,24.655,2.525,5.55Z" transform="translate(584.257 851.12) rotate(163)" fill="#9a5f0f"/>
    </g>
  </g>
</svg>
