<svg xmlns="http://www.w3.org/2000/svg" xmlns:xlink="http://www.w3.org/1999/xlink" width="620" height="620" viewBox="0 0 620 620">
  <defs>
    <linearGradient id="linear-gradient" x1="0.5" x2="0.5" y2="0.649" gradientUnits="objectBoundingBox">
      <stop offset="0" stop-color="#f87a26"/>
      <stop offset="1" stop-color="#fedc2c"/>
    </linearGradient>
    <filter id="Ellipse_9" x="1" y="4" width="618" height="618" filterUnits="userSpaceOnUse">
      <feOffset dy="3" input="SourceAlpha"/>
      <feGaussianBlur stdDeviation="3" result="blur"/>
      <feFlood flood-opacity="0.161"/>
      <feComposite operator="in" in2="blur"/>
      <feComposite in="SourceGraphic"/>
    </filter>
    <filter id="Ellipse_10" x="1" y="4" width="618" height="618" filterUnits="userSpaceOnUse">
      <feOffset dy="3" input="SourceAlpha"/>
      <feGaussianBlur stdDeviation="3" result="blur-2"/>
      <feFlood flood-opacity="0.161"/>
      <feComposite operator="in" in2="blur-2"/>
      <feComposite in="SourceGraphic"/>
    </filter>
    <clipPath id="clip-Artboard_1">
      <rect width="620" height="620"/>
    </clipPath>
  </defs>
  <g id="Artboard_1" data-name="Artboard – 1" clip-path="url(#clip-Artboard_1)">
    <rect width="620" height="620" fill="#fff"/>
    <g id="Group_8" data-name="Group 8" transform="translate(-434.321 -179)">
      <g transform="matrix(1, 0, 0, 1, 434.32, 179)" filter="url(#Ellipse_9)">
        <circle id="Ellipse_9-2" data-name="Ellipse 9" cx="300" cy="300" r="300" transform="translate(10 10)" fill="url(#linear-gradient)"/>
      </g>
      <g transform="matrix(1, 0, 0, 1, 434.32, 179)" filter="url(#Ellipse_10)">
        <circle id="Ellipse_10-2" data-name="Ellipse 10" cx="300" cy="300" r="300" transform="translate(10 10)" fill="#fff" opacity="0.18"/>
      </g>
      <g id="Group_1" data-name="Group 1" transform="translate(542.951 548.751)">
        <path id="Path_27" data-name="Path 27" d="M1118.476,141.909c0-40.941,400.991-40.941,400.991,0s-97.885,163.765-198.132,163.765S1118.476,182.851,1118.476,141.909Z" transform="translate(-1118.476 -111.204)" fill="#9f6511"/>
        <path id="Intersection_2" data-name="Intersection 2" d="M0,24.79C32.143,9.253,72.566,0,116.48,0,161.8,0,203.41,9.859,236.029,26.305c-33.851,27.446-74.818,48.362-116.184,48.362C77.717,74.667,35.173,52.978,0,24.79Z" transform="translate(83.016 119.806)" fill="#fc7777"/>
      </g>
      <g id="Group_2" data-name="Group 2" transform="translate(586.02 341.548)">
        <ellipse id="Ellipse_5" data-name="Ellipse 5" cx="46.717" cy="70.075" rx="46.717" ry="70.075" fill="#935e10"/>
        <ellipse id="Ellipse_9-3" data-name="Ellipse 9" cx="46.717" cy="70.075" rx="46.717" ry="70.075" transform="translate(223.203)" fill="#935e10"/>
      </g>
      <ellipse id="Ellipse_11" data-name="Ellipse 11" cx="20.763" cy="49.312" rx="20.763" ry="49.312" transform="translate(629.876 489.496) rotate(90)" fill="#e95d40"/>
      <ellipse id="Ellipse_12" data-name="Ellipse 12" cx="20.763" cy="49.312" rx="20.763" ry="49.312" transform="translate(956.919 489.496) rotate(90)" fill="#e95d40" opacity="0.77"/>
    </g>
  </g>
</svg>
